<svg version="1.0" xmlns="http://www.w3.org/2000/svg" width="1365.333" height="1365.333" viewBox="0 0 1024 1024"><path d="M403.1 211.1c-7.3 1.4-18.2 7.2-24.5 13-5.5 4.9-31.1 30.4-202 200.4-59.8 59.5-59.3 59-63.1 73.5-2.2 8.5-1.6 22 1.4 30.9 4.2 12.3 4.2 12.3 62.3 69.4 9.2 9.1 16.9 16.2 17.2 15.9.4-.3.6 0 .6.6 0 1.4 6.7 8.2 8 8.2.6 0 .9.3.8.7-.1.5 6.5 7.4 14.8 15.5 8.2 8.1 25.3 25 38 37.5s24.8 24.3 27 26.1c2.1 1.9 19.5 18.9 38.5 37.8 19.1 18.9 35.2 34.4 35.8 34.4.6 0 1 .3.9.8-.4 1 7.9 9.2 9.3 9.2.7 0 1 .3.6.6-.8.9 10.8 12 16.8 16.1 2.8 1.8 8.6 4.5 12.9 5.9 15.2 4.8 31.2 2.6 44.1-6 5.7-3.8 15.5-13 15.5-14.6 0-.5.3-.9.8-.8.4.2 9.8-8.7 20.9-19.7 11.1-11 22.2-21.9 24.6-24.3l4.4-4.3 32 32c35.5 35.4 41.2 39.9 54.5 42.8 4 .8 18 .8 22.8-.2 7.8-1.5 24.9-11.2 25-14.3 0-.6.4-1.2 1-1.2 1.5 0 5-3.3 4.4-4.2-.3-.4-.1-.8.4-.8 1.3 0 18.2-16.7 18.2-18 0-.5.5-1 1.1-1 1.3 0 11.9-10.8 11.9-12.2 0-.5.4-.7.8-.4.9.6 4.2-2.9 4.2-4.4 0-.6.5-1 1-1 1.4 0 5-3.7 5-5.2 0-.6.2-.9.5-.6.7.7 12.5-11 12.5-12.3 0-.6.3-.8.8-.6.9.5 13.1-12.1 12.4-12.8-.3-.3 0-.5.7-.5 1.2 0 8.4-7 7.3-7.1-.4 0 .3-.4 1.6-.9 1.2-.5 2.2-1.6 2.2-2.5 0-.8.4-1.5 1-1.5 1.1 0 12.1-11 11.1-11.1-.3 0 .4-.4 1.7-.9 1.2-.5 2.2-1.6 2.2-2.5 0-.8.5-1.5 1-1.5 1.4 0 7.9-6.8 7.2-7.5-.3-.3 0-.5.6-.5 1.4 0 12.1-10.7 11.4-11.5-.3-.3 0-.5.7-.5 1.3 0 8.4-6.9 7.2-7.1-.3 0 .4-.4 1.7-.9 1.2-.5 2.2-1.6 2.2-2.5 0-.8.5-1.5 1-1.5 1.4 0 7.9-6.8 7.2-7.5-.3-.3 0-.5.5-.5 1.3 0 33.3-31.9 33.3-33.1 0-.5.4-.9.8-.9 1.2 0 22.2-21.1 22.2-22.3 0-.6.2-.8.5-.5.3.3 13.1-12.1 28.4-27.5 23.5-23.4 28.5-29 31.4-34.6 8.2-15.7 8-33-.6-49.6-2.6-5.1-21.8-24.7-133.1-136.1-85.6-85.5-131.7-131-134.9-132.8-11.8-6.8-26.6-9.1-39.1-6.2-13.8 3.3-16.3 5.2-51.7 40.3L510.4 284l-27.5-27.1c-15.1-14.9-30.1-29.6-33.4-32.7-12.4-11.5-29.7-16.4-46.4-13.1z"/></svg>