<?xml version="1.0" standalone="no"?>
<!DOCTYPE svg PUBLIC "-//W3C//DTD SVG 20010904//EN"
 "http://www.w3.org/TR/2001/REC-SVG-20010904/DTD/svg10.dtd">
<svg version="1.0" xmlns="http://www.w3.org/2000/svg"
 width="1024.000000pt" height="1024.000000pt" viewBox="0 0 1024.000000 1024.000000"
 preserveAspectRatio="xMidYMid meet">
<metadata>
Created by potrace 1.14, written by Peter Selinger 2001-2017
</metadata>
<g transform="translate(0.000000,1024.000000) scale(0.100000,-0.100000)"
fill="#000000" stroke="none">
<path d="M4031 8129 c-73 -14 -182 -72 -245 -130 -55 -49 -311 -304 -2020
-2004 -598 -595 -593 -590 -631 -735 -22 -85 -16 -220 14 -309 42 -123 42
-123 623 -694 92 -91 169 -162 172 -159 4 3 6 0 6 -6 0 -14 67 -82 80 -82 6 0
9 -3 8 -7 -1 -5 65 -74 148 -155 82 -81 253 -250 380 -375 127 -125 248 -243
270 -261 21 -19 195 -189 385 -378 191 -189 352 -344 358 -344 6 0 10 -3 9 -8
-4 -10 79 -92 93 -92 7 0 10 -3 6 -6 -8 -9 108 -120 168 -161 28 -18 86 -45
129 -59 152 -48 312 -26 441 60 57 38 155 130 155 146 0 5 3 9 8 8 4 -2 98 87
209 197 111 110 222 219 246 243 l44 43 320 -320 c355 -354 412 -399 545 -428
40 -8 180 -8 228 2 78 15 249 112 250 143 0 6 4 12 10 12 15 0 50 33 44 42 -3
4 -1 8 4 8 13 0 182 167 182 180 0 5 5 10 11 10 13 0 119 108 119 122 0 5 4 7
8 4 9 -6 42 29 42 44 0 6 5 10 10 10 14 0 50 37 50 52 0 6 2 9 5 6 7 -7 125
110 125 123 0 6 3 8 8 6 9 -5 131 121 124 128 -3 3 0 5 7 5 12 0 84 70 73 71
-4 0 3 4 16 9 12 5 22 16 22 25 0 8 4 15 10 15 11 0 121 110 111 111 -3 0 4 4
17 9 12 5 22 16 22 25 0 8 5 15 10 15 14 0 79 68 72 75 -3 3 0 5 6 5 14 0 121
107 114 115 -3 3 0 5 7 5 13 0 84 69 72 71 -3 0 4 4 17 9 12 5 22 16 22 25 0
8 5 15 10 15 14 0 79 68 72 75 -3 3 0 5 5 5 13 0 333 319 333 331 0 5 4 9 8 9
12 0 222 211 222 223 0 6 2 8 5 5 3 -3 131 121 284 275 235 234 285 290 314
346 82 157 80 330 -6 496 -26 51 -218 247 -1331 1361 -856 855 -1317 1310
-1349 1328 -118 68 -266 91 -391 62 -138 -33 -163 -52 -517 -403 l-325 -323
-275 271 c-151 149 -301 296 -334 327 -124 115 -297 164 -464 131z"/>
</g>
</svg>
